# xmcd CD database file
#
# Track frame offsets:
#	150
#	11945
#	24236
#	37872
#	50980
#	65568
#	78119
#	90198
#	101554
#	114866
#	128952
#	142496
#	154656
#	164735
#	177379
#	190400
#	202327
#	213614
#	226868
#	240334
#	252538
#	264448
#	277558
#	289825
#	301867
#
# Disc length: 4193 seconds
#
# Revision: 0
# Processed by: cddbd v1.5.1PL2 Copyright (c) Steve Scherf et al.
# Submitted via: CDex 1.50
#
DISCID=64105f19
DTITLE=Various Artist - 100 Rhythm and Blues Classics Disc 1
DYEAR=1900
DGENRE=Blues
TTITLE0=Fats Domino - The Fat Man
TTITLE1=The Clovers - Lovey Dovey
TTITLE2=Nellie Lutcher - He's a Real Gone Guy
TTITLE3=The Cadillacs - Gloria
TTITLE4=Charles Brown and Johnny Moore's Three Blazers - Drifting Blues
TTITLE5=Wynonie Harris - Good Rockin' Tonight
TTITLE6=Ray Charles - Mess Around
TTITLE7=The Dominoes - Sixty Minute Man
TTITLE8=Little Junior's Blue Flames - Feelin' Good
TTITLE9=Muddy Waters - Rollin' Stone
TTITLE10=Joe Turner - Shake, Rattle and Roll
TTITLE11=The Prisonaires - Just Walkin' in the Rain
TTITLE12=The Royals - Get it
TTITLE13=Jimmy Reed - High and Lonesome
TTITLE14=Faye Adams - Shake a Hand
TTITLE15=Lightnin' Hopkins - Gone with the Wind
TTITLE16=The Drifters feat. Clyde McPhatter - Such a Night
TTITLE17=Howlin' Wolf - Moaning at Midnight
TTITLE18=Johnny Ace - My Song
TTITLE19=Louis Jordan - Choo Choo Ch' Boogie
TTITLE20=Dinah Washington - New Blowtop Blues
TTITLE21=The Moonglows - Baby Please
TTITLE22=Smiley Lewis - Blue Monday
TTITLE23=T-Bone Walker - Bobby Sox Blues
TTITLE24=Willie Mae "Big Mama" Thornton - Hound Dog
EXTD=
EXTT0=
EXTT1=
EXTT2=
EXTT3=
EXTT4=
EXTT5=
EXTT6=
EXTT7=
EXTT8=
EXTT9=
EXTT10=
EXTT11=
EXTT12=
EXTT13=
EXTT14=
EXTT15=
EXTT16=
EXTT17=
EXTT18=
EXTT19=
EXTT20=
EXTT21=
EXTT22=
EXTT23=
EXTT24=
PLAYORDER=
